<svg width="262" height="240" viewBox="0 0 262 240" fill="none" xmlns="http://www.w3.org/2000/svg">
<path d="M82.6085 94.0664C82.6085 94.8056 82.2389 95.4216 81.4997 95.9144C80.8836 96.4072 80.0212 96.7768 78.9124 97.0233C77.9267 97.1465 76.8179 97.1465 75.5859 97.0233C74.3538 96.9001 73.245 96.6536 72.2594 96.284C74.2306 97.3929 76.2635 98.7481 78.358 100.35C80.4524 101.828 82.2389 103.43 83.7173 105.155C85.319 106.88 86.551 108.728 87.4134 110.699C88.3991 112.547 88.8303 114.333 88.7071 116.058C88.4607 116.921 88.2143 117.906 87.9679 119.015C87.7215 120.001 87.4751 121.048 87.2286 122.157C86.7358 124.498 86.1814 127.023 85.5654 129.734C85.0726 132.444 84.5798 135.093 84.0869 137.681C83.7173 140.268 83.4093 142.732 83.1629 145.073C83.0397 147.291 83.1013 149.2 83.3477 150.802C83.4709 151.048 83.3477 151.356 82.9781 151.726H84.2717C87.4751 150.494 90.3703 148.461 92.9576 145.627C95.5449 142.794 97.8858 139.59 99.9803 136.017C102.075 132.321 103.923 128.44 105.524 124.375C107.249 120.186 108.851 116.181 110.329 112.362C111.315 110.514 111.993 108.851 112.362 107.372C112.732 106.756 113.594 106.633 114.95 107.003C116.428 107.249 117.906 107.804 119.385 108.666C120.863 109.528 122.157 110.576 123.266 111.808C124.375 112.917 124.744 113.902 124.375 114.765L121.418 122.157V122.342C118.584 129.611 115.442 136.818 111.993 143.964C108.543 150.987 104.231 157.332 99.0562 162.999C98.1938 163.985 97.1466 165.093 95.9145 166.326C94.6825 167.434 93.204 168.482 91.4792 169.467C89.7543 170.576 87.8447 171.439 85.7502 172.055C83.6557 172.794 81.3149 173.102 78.7276 172.979C72.6906 172.486 67.8856 170.453 64.3127 166.88C60.7398 163.184 58.2757 158.564 56.9204 153.02C53.2243 158.194 49.097 162.629 44.5384 166.326C40.1031 170.022 35.3597 171.931 30.3084 172.055C25.5034 171.562 21.3145 170.268 17.7416 168.174C14.2918 165.956 11.3965 163.369 9.05567 160.412C6.71479 157.455 4.92834 154.313 3.69629 150.987C2.34105 147.537 1.41702 144.334 0.924203 141.377C0.554591 138.666 0.369785 136.449 0.369785 134.724C0.123377 130.165 0.554591 125.175 1.66343 119.754C2.77226 114.333 4.37392 108.912 6.46839 103.491C8.56285 98.0705 11.2117 92.8343 14.415 87.783C17.6184 82.7316 21.1913 78.2346 25.1338 74.2921C29.0763 70.3496 33.3885 67.2079 38.0702 64.867C42.8752 62.5261 47.9882 61.3557 53.4091 61.3557C55.0108 61.3557 56.6124 61.4789 58.2141 61.7253C59.8157 61.9717 61.5406 62.3413 63.3887 62.8341C66.592 63.8198 69.3025 65.4214 71.5201 67.6391C73.861 69.7336 75.7707 72.2592 77.2491 75.2161C78.7276 78.0498 79.898 81.1299 80.7604 84.4564C81.6229 87.6598 82.2389 90.8631 82.6085 94.0664ZM60.9862 94.0664C61.9718 93.4503 63.3271 93.3271 65.0519 93.6967C66.9 94.0664 68.8712 94.744 70.9657 95.7296C70.1033 95.1136 69.6721 94.436 69.6721 93.6967C69.6721 93.3271 69.5489 92.8959 69.3025 92.4031C69.1792 91.9103 69.056 91.4175 68.9328 90.9247C68.6864 89.6926 68.3168 88.399 67.824 87.0437C67.3312 85.6885 66.7152 84.4564 65.9759 83.3476C65.2367 82.1156 64.3127 81.1299 63.2039 80.3907C62.2182 79.6515 60.9246 79.2203 59.3229 79.0971C54.7644 78.9739 50.5754 80.6371 46.7561 84.0868C43.06 87.4133 39.8567 91.6639 37.1462 96.8385C34.4357 102.013 32.218 107.557 30.4932 113.471C28.7683 119.385 27.6595 124.744 27.1667 129.549C26.9203 130.904 26.7971 132.629 26.7971 134.724C26.9203 136.695 27.1667 138.666 27.5363 140.637C27.9059 143.471 28.8299 145.812 30.3084 147.66C31.7868 149.508 34.3125 149.939 37.8854 148.954C39.4871 148.461 41.3351 147.044 43.4296 144.703C45.5241 142.362 47.6185 139.652 49.713 136.572C51.8075 133.368 53.7787 130.042 55.6268 126.592C57.5981 123.019 59.1997 119.816 60.4318 116.982C61.0478 113.163 61.5406 109.528 61.9102 106.079C62.403 102.506 62.5262 99.4873 62.2798 97.0233L60.9862 94.0664ZM141.972 68.5631C137.536 83.7172 133.409 97.1465 129.59 108.851C125.77 120.555 122.259 131.089 119.056 140.453L116.653 147.845C119.61 146.859 122.321 145.258 124.785 143.04C127.249 140.699 129.528 137.989 131.623 134.909C133.717 131.828 135.627 128.563 137.352 125.114C139.2 121.664 140.986 118.276 142.711 114.949V115.134L146.777 106.818C147.146 106.325 148.009 106.325 149.364 106.818C150.719 107.188 152.074 107.804 153.43 108.666C154.908 109.528 156.14 110.576 157.126 111.808C158.111 112.917 158.419 113.902 158.05 114.765C157.68 115.75 157.311 116.798 156.941 117.906C156.571 119.015 156.202 120.001 155.832 120.863L155.647 120.494C154.785 122.711 153.984 124.806 153.245 126.777C152.506 128.625 151.705 130.535 150.842 132.506C150.103 134.354 149.179 136.264 148.07 138.235C147.085 140.206 145.853 142.362 144.374 144.703C142.896 146.921 141.232 149.139 139.384 151.356C137.66 153.574 135.688 155.607 133.471 157.455C131.253 159.18 128.85 160.658 126.263 161.89C123.799 163.122 121.15 163.923 118.316 164.293L119.241 166.51V167.25C120.226 169.344 120.965 171.377 121.458 173.348C121.951 175.319 122.382 177.476 122.752 179.816C123.861 186.469 124.045 193.307 123.306 200.33C122.69 207.476 121.335 213.944 119.241 219.734C117.269 225.648 114.682 230.453 111.479 234.149C108.275 237.969 104.641 239.878 100.575 239.878C95.8934 239.632 92.1972 237.722 89.4867 234.149C86.6531 230.7 84.5586 226.449 83.2033 221.398L82.8337 220.659V219.55C82.8337 219.426 82.8337 219.303 82.8337 219.18C82.7105 219.18 82.6489 219.118 82.6489 218.995C81.9097 211.48 81.8481 203.903 82.4641 196.264C83.0801 188.625 84.1274 180.987 85.6058 173.348C87.0843 165.833 88.8707 158.317 90.9652 150.802C93.0597 143.286 95.2157 135.833 97.4334 128.44L100.76 117.352L110.739 80.5755L117.762 55.8115C119.117 51.0065 120.411 46.2016 121.643 41.3966C122.875 36.4685 123.984 31.6635 124.97 26.9818C126.078 22.3 127.002 17.8031 127.742 13.4909C128.481 9.17877 128.974 5.17464 129.22 1.47851C130.822 0.492878 133.101 0.554479 136.058 1.66332C139.138 2.64895 142.156 4.2506 145.113 6.46828C148.07 8.56275 150.534 11.0884 152.506 14.0453C154.6 17.0022 155.401 19.8359 154.908 22.5464V22.3616C154.662 24.0865 154.107 26.6737 153.245 30.1235C152.382 33.45 151.335 37.2693 150.103 41.5814C148.994 45.7704 147.701 50.2673 146.222 55.0723C144.744 59.754 143.327 64.251 141.972 68.5631ZM109.261 184.437C108.891 181.972 108.337 179.508 107.598 177.044C105.503 184.929 104.025 192.445 103.162 199.591C102.3 206.86 102.054 214.683 102.423 223.061C104.271 221.336 105.75 219.057 106.859 216.223C108.091 213.513 108.953 210.433 109.446 206.983C110.062 203.533 110.308 199.899 110.185 196.079C110.185 192.26 109.877 188.379 109.261 184.437ZM236.657 132.321C235.302 135.525 233.454 139.405 231.113 143.964C228.772 148.523 226 152.958 222.797 157.27C219.717 161.582 216.267 165.278 212.448 168.358C208.752 171.315 204.809 172.794 200.62 172.794C198.033 172.794 195.384 172.301 192.674 171.315C190.086 170.453 187.684 169.036 185.466 167.065C183.372 165.093 181.524 162.568 179.922 159.488C178.443 156.284 177.458 152.527 176.965 148.215C176.595 144.518 176.472 140.884 176.595 137.311C176.842 133.738 177.211 129.98 177.704 126.038C178.32 122.095 179.121 117.845 180.107 113.286C181.092 108.604 182.263 103.368 183.618 97.5777C184.234 95.1136 184.665 92.8343 184.912 90.7398C185.158 88.5222 185.158 86.7357 184.912 85.3805L178.628 92.9575C175.055 96.9001 171.852 100.904 169.018 104.97C166.185 109.036 163.413 113.409 160.702 118.091C158.731 126.099 157.252 134.231 156.267 142.486C155.281 150.74 155.096 159.118 155.712 167.619C155.712 168.974 154.603 169.59 152.386 169.467C150.291 169.344 147.889 168.79 145.178 167.804C142.591 166.695 140.127 165.34 137.786 163.738C135.445 162.137 134.09 160.535 133.72 158.933C132.858 151.418 132.735 143.841 133.351 136.202C133.844 128.563 134.829 120.925 136.308 113.286C137.786 105.648 139.573 98.0089 141.667 90.3702C143.761 82.7316 145.856 75.1545 147.95 67.6391L151.462 55.8115C152.694 51.1298 153.926 46.3864 155.158 41.5814C156.39 36.6533 157.499 31.8483 158.484 27.1666C159.593 22.4848 160.456 17.9879 161.072 13.6757C161.811 9.24037 162.365 5.17464 162.735 1.47851C164.337 0.492878 166.616 0.554479 169.573 1.66332C172.653 2.64895 175.61 4.2506 178.443 6.46828C181.277 8.68595 183.741 11.2732 185.836 14.2301C187.93 17.0638 188.854 19.8359 188.608 22.5464C188.238 24.3945 187.622 27.0434 186.76 30.4931C185.897 33.9428 184.85 37.8237 183.618 42.1359C182.386 46.3248 181.031 50.7601 179.552 55.4419C178.197 60.0004 176.903 64.3742 175.671 68.5631L174.008 73.3681C177.211 70.4112 180.6 67.9471 184.172 65.9758C187.869 64.0046 191.749 62.8341 195.815 62.4645C197.54 62.4645 199.511 63.2653 201.729 64.867C203.947 66.3454 205.98 68.1935 207.828 70.4112C209.799 72.6289 211.401 75.0313 212.633 77.6186C213.865 80.2059 214.357 82.4852 214.111 84.4564C212.879 90.7399 211.647 96.6536 210.415 102.198C209.183 107.619 208.074 112.301 207.088 116.243C206.226 119.693 205.425 122.896 204.686 125.853C204.07 128.687 203.515 131.52 203.023 134.354C202.653 137.188 202.407 140.083 202.283 143.04C202.16 145.997 202.283 149.2 202.653 152.65C202.653 152.28 202.961 151.911 203.577 151.541H203.392C206.472 149.693 209.984 146.551 213.926 142.116C217.869 137.681 221.565 131.644 225.015 124.005C226 122.034 226.863 120.124 227.602 118.276C228.464 116.428 229.265 114.58 230.004 112.732L231.852 107.372C232.222 106.756 233.084 106.633 234.44 107.003C235.795 107.249 237.212 107.804 238.69 108.666C240.169 109.528 241.401 110.576 242.386 111.808C243.495 112.917 243.865 113.902 243.495 114.765V114.395L236.657 132.136V132.321ZM238.458 158.564C238.458 154.005 239.567 150.802 241.784 148.954C244.002 147.106 246.651 146.182 249.731 146.182C252.934 146.182 255.645 147.106 257.862 148.954C260.203 150.802 261.374 154.005 261.374 158.564C261.374 162.999 260.203 166.202 257.862 168.174C255.645 170.145 252.934 171.13 249.731 171.13C246.651 171.13 244.002 170.145 241.784 168.174C239.567 166.202 238.458 162.999 238.458 158.564Z" fill="black"/>
</svg>
